<svg height="512pt" viewBox="-92 0 512 512.00488" width="512pt" xmlns="http://www.w3.org/2000/svg"><path d="m163.960938 7.5c-67.578126 0-122.363282 41.300781-122.363282 135.402344 0 74.777344 54.785156 135.398437 122.363282 135.398437 67.578124 0 122.363281-60.621093 122.363281-135.398437 0-94.101563-54.785157-135.402344-122.363281-135.402344zm0 0" fill="#464960"/><path d="m163.960938 7.5c-4.964844 0-9.859376.230469-14.671876.679688 60.664063 5.679687 107.695313 47.535156 107.695313 134.722656 0 69.285156-47.03125 126.40625-107.695313 134.429687 4.8125.636719 9.707032.972657 14.671876.972657 67.578124 0 122.363281-60.621094 122.363281-135.402344 0-94.101563-54.785157-135.402344-122.363281-135.402344zm0 0" fill="#272d44"/><path d="m320.421875 390.515625v68.898437c0 5.472657-3.140625 10.441407-8.058594 12.832032-41.648437 20.269531-92.9375 32.226562-148.402343 32.226562-55.460938 0-106.75-11.957031-148.402344-32.226562-4.917969-2.390625-8.054688-7.359375-8.054688-12.832032v-68.898437c0-9.074219 5.363282-17.296875 13.671875-20.960937l69.6875-30.714844c8.152344-3.589844 13.421875-11.679688 13.421875-20.589844v-75.097656h119.355469v75.097656c0 8.910156 5.269531 17 13.421875 20.589844l69.6875 30.714844c8.304688 3.664062 13.671875 11.886718 13.671875 20.960937zm0 0" fill="#c98c4f"/><path d="m306.75 369.554688-69.6875-30.714844c-8.15625-3.589844-13.421875-11.679688-13.421875-20.589844v-75.097656h-119.355469v14h94.355469v75.097656c0 8.910156 5.269531 16.996094 13.421875 20.585938l69.6875 30.71875c8.308594 3.664062 13.675781 11.882812 13.675781 20.960937v68.898437c0 2.578126-.707031 5.042969-1.960937 7.183594 6.492187-2.601562 12.800781-5.382812 18.898437-8.351562 4.921875-2.390625 8.058594-7.359375 8.058594-12.832032v-68.898437c0-9.074219-5.367187-17.296875-13.671875-20.960937zm0 0" fill="#af6a3a"/><path d="m223.640625 315.320312v-72.167968h-119.355469v47.425781c18.300782 22.007813 41.917969 38.589844 59.445313 38.589844h26.457031c9.894531 0 21.730469-5.285157 33.453125-13.847657zm0 0" fill="#af6a3a"/><g fill="#c98c4f"><path d="m271.996094 168.59375h-28.871094v59.679688h28.871094c12.640625 0 22.886718-10.246094 22.886718-22.886719v-13.90625c0-12.636719-10.246093-22.886719-22.886718-22.886719zm0 0"/><path d="m55.925781 168.59375h28.871094v59.679688h-28.871094c-12.640625 0-22.886719-10.246094-22.886719-22.886719v-13.90625c0-12.636719 10.246094-22.886719 22.886719-22.886719zm0 0"/><path d="m264.839844 206.117188c0 43.117187-54.632813 101.960937-87.648438 101.960937h-26.457031c-33.019531 0-87.652344-58.84375-87.652344-101.960937 0 0-1.503906-60.78125.058594-80.960938 1.109375-14.257812 8.789063-22.265625 24.382813-25.382812 21.023437-4.191407 41.554687 18.835937 76.46875 18.835937 34.914062 0 55.382812-23.027344 76.40625-18.835937 15.59375 3.117187 23.273437 11.125 24.382812 25.382812 1.566406 20.183594.058594 80.960938.058594 80.960938zm0 0"/></g><path d="m264.78125 125.15625c-1.109375-14.257812-8.785156-22.265625-24.382812-25.382812-6.050782-1.207032-12.054688-.152344-18.371094 1.953124 10.890625 3.976563 16.429687 11.515626 17.351562 23.429688 1.566406 20.179688.0625 80.960938.0625 80.960938 0 43.117187-54.632812 101.960937-87.652344 101.960937h25.402344c33.015625 0 87.648438-58.84375 87.648438-101.960937 0 0 1.507812-60.777344-.058594-80.960938zm0 0" fill="#af6a3a"/><path d="m163.960938 504.472656c44.226562 0 85.792968-7.609375 121.941406-20.96875v-29.179687s-20.992188-2.507813-20.992188-31.09375c0-16.804688 2.75-47.480469 5.015625-69.90625l-26.808593-11.816407c-.242188 43.511719-35.585938 78.714844-79.15625 78.714844-43.566407 0-78.910157-35.203125-79.152344-78.714844l-26.808594 11.816407c2.265625 22.425781 5.011719 53.101562 5.011719 69.90625 0 28.585937-20.992188 31.09375-20.992188 31.09375v29.179687c36.148438 13.359375 77.714844 20.96875 121.941407 20.96875zm0 0" fill="#61ce8d"/><path d="m239.457031 364.914062 28.191407 12.425782c.734374-8.371094 1.53125-16.640625 2.277343-24.015625l-26.808593-11.816407c-.046876 8.152344-1.324219 16.011719-3.660157 23.40625zm0 0" fill="#40914c"/><path d="m243.125 496.003906v-45.027344c0-2.210937-1.789062-4-4-4h-150.328125c-2.210937 0-4 1.789063-4 4v45.027344c24.898437 5.492188 51.511719 8.46875 79.164063 8.46875 27.65625 0 54.265624-2.976562 79.164062-8.46875zm0 0" fill="#e6eff5"/><path d="m239.125 446.976562h-150.328125c-2.210937 0-4 1.789063-4 4v19.5h158.328125v-19.5c0-2.210937-1.789062-4-4-4zm0 0" fill="#f4d34d"/><path d="m320.421875 410.476562c4.144531 0 7.5-3.355468 7.5-7.5v-12.457031c0-12.035156-7.121094-22.960937-18.152344-27.832031-4.027343-1.773438-63.367187-27.925781-69.6875-30.710938-5.433593-2.390624-8.945312-7.777343-8.945312-13.722656v-31.679687c2.65625-2.625 5.285156-5.40625 7.878906-8.335938 12.023437-13.589843 21.257813-28.304687 26.921875-42.460937h6.058594c16.753906 0 30.386718-13.632813 30.386718-30.386719v-13.910156c0-9.21875-4.125-17.488281-10.625-23.066407 1.371094-8.386718 2.066407-16.945312 2.066407-25.511718 0-46.683594-12.796875-83.121094-38.042969-108.300782-22.695312-22.636718-54.445312-34.601562-91.820312-34.601562s-69.125 11.964844-91.820313 34.601562c-25.242187 25.179688-38.042969 61.617188-38.042969 108.300782 0 8.566406.695313 17.125 2.066406 25.511718-6.5 5.578126-10.625 13.847657-10.625 23.066407v13.910156c0 16.753906 13.632813 30.386719 30.390626 30.386719h6.027343c1.800781 4.5 3.976563 9.070312 6.507813 13.667968 1.996094 3.628907 6.554687 4.953126 10.183594 2.953126 3.628906-1.996094 4.953124-6.558594 2.953124-10.183594-3.039062-5.527344-5.476562-10.945313-7.277343-16.152344-.042969-.140625-.089844-.277344-.144531-.414062-2.371094-6.976563-3.597657-13.570313-3.597657-19.527344 0-.0625 0-.125 0-.1875-.007812-.324219-.441406-18-.59375-37.269532 0-.023437 0-.046874 0-.070312 0-.074219 0-.144531-.003906-.214844-.128906-16.304687-.058594-33.695312.636719-42.636718.976562-12.59375 8.050781-16.546876 18.371094-18.613282 7.878906-1.570312 16.503906 2.15625 27.425781 6.878906 12.476562 5.390626 28.007812 12.101563 47.574219 12.101563 19.570312 0 35.085937-6.710937 47.550781-12.105469 10.902343-4.71875 19.515625-8.445312 27.386719-6.875 10.320312 2.066406 17.398437 6.019532 18.375 18.613282.695312 8.941406.765624 26.332031.636718 42.636718-.003906.070313-.003906.144532-.003906.214844v.074219c-.152344 19.265625-.585938 36.941406-.59375 37.269531v.183594c0 17.746094-11.328125 41.574218-29.558594 62.183594-2.921875 3.300781-5.914062 6.40625-8.9375 9.285156-.246094.207031-.484375.429687-.703125.667968-14.707031 13.835938-30 22.328126-40.949219 22.328126h-26.460937c-10.9375 0-26.402344-8.652344-41.078125-22.464844-.144531-.148438-.296875-.289063-.453125-.425782-3.773437-3.582031-7.488281-7.5-11.058594-11.699218-2.683593-3.15625-7.417969-3.539063-10.574219-.855469-3.152343 2.683594-3.535156 7.414063-.855468 10.570313 3.070312 3.609374 6.453125 7.261718 10.074218 10.820312v31.726562c0 5.945313-3.511718 11.332032-8.945312 13.726563-8.332031 3.671875-57.945312 25.535156-69.691406 30.710937-11.027344 4.867188-18.14843775 15.792969-18.14843775 27.828126v68.898437c0 8.265625 4.82031275 15.949219 12.27734375 19.570313 91.5 44.53125 213.988281 43.496093 303.363281.003906 7.460938-3.625 12.28125-11.308594 12.28125-19.574219v-26.441406c0-4.140625-3.359375-7.5-7.5-7.5s-7.5 3.359375-7.5 7.5v26.441406c0 2.601563-1.46875 4.933594-3.84375 6.085937-5.113281 2.488282-10.34375 4.835938-15.675781 7.039063v-36.273437c0-4.140626-3.359375-7.5-7.5-7.5-4.144531 0-7.5 3.359374-7.5 7.5v5.828124c-3.167969-3.390624-5.996094-9.140624-5.996094-18.863281 0-14.039062 1.972656-38.136719 3.964844-58.871093l27.339844 12.046874c5.59375 2.472657 9.210937 8.011719 9.210937 14.109376v12.460937c-.003906 4.136719 3.355469 7.492187 7.496094 7.492187zm-33.035156-205.085937c0 8.484375-6.902344 15.386719-15.390625 15.386719h-1.363282c1.117188-5.042969 1.699219-9.929688 1.707032-14.5625.042968-1.628906.355468-14.582032.53125-30.101563 2.492187.140625 4.828125.878907 6.863281 2.066407.03125.019531.0625.039062.09375.054687 4.519531 2.683594 7.558594 7.617187 7.558594 13.246094zm-231.460938 15.386719c-8.484375 0-15.386719-6.902344-15.386719-15.386719v-13.910156c0-5.628907 3.035157-10.5625 7.558594-13.246094.03125-.015625.0625-.035156.09375-.054687 2.035156-1.1875 4.371094-1.925782 6.863282-2.066407.179687 15.519531.488281 28.472657.527343 30.101563.007813 4.632812.578125 9.511718 1.6875 14.5625zm185.941407-128.359375c-12.472657-2.488281-24.039063 2.515625-36.28125 7.816406-11.78125 5.097656-25.128907 10.875-41.59375 10.875-16.460938 0-29.832032-5.777344-41.625-10.875-12.257813-5.296875-23.839844-10.304687-36.3125-7.816406-18.800782 3.761719-29.023438 14.582031-30.386719 32.160156-.628907 8.074219-.78125 22.234375-.730469 36.53125-1.570312.050781-3.113281.21875-4.617188.5-.8125-6.175781-1.222656-12.4375-1.222656-18.707031 0-42.554688 11.316406-75.417969 33.636719-97.679688 19.820313-19.773437 47.910156-30.222656 81.226563-30.222656 33.316406 0 61.40625 10.449219 81.226562 30.222656 22.320312 22.261719 33.636719 55.125 33.636719 97.679688 0 6.269531-.410157 12.53125-1.222657 18.707031-1.503906-.28125-3.042968-.453125-4.613281-.5.046875-14.296875-.105469-28.457031-.730469-36.53125-1.367187-17.578125-11.589843-28.398437-30.390624-32.160156zm-130.082032 225.835937v-18.773437c12.507813 9.367187 26.253906 16.101562 38.949219 16.101562h26.457031c11.550782 0 25.191406-5.734375 38.949219-16.011719v18.683594c0 11.886719 7.023437 22.664063 17.894531 27.453125l1.390625.613281c-2.710937 37.035157-33.804687 66.40625-71.464843 66.40625-37.660157 0-68.753907-29.371093-71.460938-66.40625l1.390625-.613281c10.867187-4.792969 17.894531-15.566406 17.894531-27.453125zm-96.785156 141.160156v-68.894531c0-6.101562 3.613281-11.636719 9.203125-14.105469l27.34375-12.050781c1.992187 20.734375 3.964844 44.832031 3.964844 58.867188 0 9.722656-2.824219 15.472656-5.992188 18.867187v-5.828125c0-4.140625-3.359375-7.5-7.5-7.5s-7.5 3.359375-7.5 7.5v36.269531c-5.335937-2.203124-10.566406-4.550781-15.683593-7.039062-2.367188-1.152344-3.835938-3.480469-3.835938-6.085938zm220.625 3.5625h-143.328125v-8.5h143.328125zm-143.328125 14.996094h143.328125v11.921875c-45.628906 9.210938-95.46875 9.660157-143.328125 0zm186.105469-18v18.261719c-8.992188 3.144531-18.273438 5.910156-27.777344 8.28125v-35.539063c0-6.339843-5.15625-11.5-11.5-11.5h-150.328125c-6.339844 0-11.5 5.160157-11.5 11.5v35.539063c-9.5-2.371094-18.78125-5.136719-27.777344-8.28125v-18.261719c9.496094-3.9375 20.992188-14.496094 20.992188-36.742187 0-15.742188-2.339844-43.164063-4.511719-65.234375l12.085938-5.328125c5.707031 42.28125 42.128906 75.054687 85.875 75.054687 43.75 0 80.167968-32.773437 85.878906-75.054687l12.085937 5.328125c-2.171875 22.070312-4.511719 49.492187-4.511719 65.234375-.003906 22.246093 11.492188 32.804687 20.988282 36.742187zm0 0"/><path d="m112.464844 183.523438v3.167968c0 4.144532 3.359375 7.5 7.5 7.5s7.5-3.355468 7.5-7.5v-3.167968c0-4.140626-3.359375-7.5-7.5-7.5-4.144532 0-7.5 3.359374-7.5 7.5zm0 0"/><path d="m200.460938 183.523438v3.167968c0 4.144532 3.355468 7.5 7.5 7.5 4.140624 0 7.5-3.355468 7.5-7.5v-3.167968c0-4.140626-3.359376-7.5-7.5-7.5-4.144532 0-7.5 3.359374-7.5 7.5zm0 0"/><path d="m225.085938 164.980469c2.773437 0 5.433593-1.542969 6.738281-4.199219 1.824219-3.71875.289062-8.210938-3.429688-10.035156-13.398437-6.582032-26.992187-6.582032-40.398437 0-3.714844 1.824218-5.25 6.316406-3.425782 10.035156 1.824219 3.71875 6.320313 5.25 10.035157 3.429688 9.144531-4.492188 18.035156-4.492188 27.183593 0 1.0625.519531 2.1875.769531 3.296876.769531zm0 0"/><path d="m139.925781 150.746094c-13.40625-6.578125-26.996093-6.578125-40.398437 0-3.71875 1.824218-5.253906 6.320312-3.429688 10.035156 1.304688 2.65625 3.964844 4.199219 6.738282 4.199219 1.109374 0 2.234374-.246094 3.296874-.769531 9.144532-4.488282 18.035157-4.488282 27.179688 0 3.722656 1.824218 8.214844.292968 10.039062-3.429688 1.824219-3.714844.289063-8.210938-3.425781-10.035156zm0 0"/><path d="m163.960938 224.289062c-6.375 0-12.582032-1.96875-17.953126-5.691406-3.40625-2.359375-8.078124-1.515625-10.4375 1.890625-2.359374 3.402344-1.511718 8.074219 1.890626 10.433594 7.894531 5.472656 17.058593 8.367187 26.5 8.367187 9.445312 0 18.609374-2.894531 26.503906-8.367187 3.402344-2.359375 4.25-7.03125 1.886718-10.433594-2.359374-3.402343-7.03125-4.253906-10.433593-1.890625-5.375 3.722656-11.582031 5.691406-17.957031 5.691406zm0 0"/></svg>