<svg height="512pt" viewBox="-95 0 512 512" width="512pt" xmlns="http://www.w3.org/2000/svg"><path d="m161.191406 0c-69.621094 0-126.0625 42.550781-126.0625 139.496094 0 77.039062 56.4375 139.492187 126.0625 139.492187 69.621094 0 126.0625-62.453125 126.0625-139.492187 0-96.945313-56.441406-139.496094-126.0625-139.496094zm0 0" fill="#464960"/><path d="m161.191406 0c-5.117187 0-10.160156.234375-15.113281.699219 62.492187 5.855469 110.945313 48.972656 110.945313 138.796875 0 71.378906-48.453126 130.230468-110.945313 138.492187 4.953125.65625 9.996094 1.003907 15.113281 1.003907 69.621094 0 126.0625-62.457032 126.0625-139.496094 0-96.945313-56.441406-139.496094-126.0625-139.496094zm0 0" fill="#272d44"/><path d="m322.382812 394.597656v70.980469c0 5.636719-3.234374 10.757813-8.304687 13.222656-42.90625 20.878907-95.746094 33.199219-152.886719 33.199219s-109.980468-12.320312-152.890625-33.199219c-5.066406-2.464843-8.300781-7.585937-8.300781-13.222656v-70.980469c0-9.351562 5.527344-17.816406 14.085938-21.59375l71.796874-31.648437c8.398438-3.695313 13.824219-12.027344 13.824219-21.207031v-77.367188h122.964844v77.367188c0 9.179687 5.429687 17.511718 13.828125 21.207031l71.792969 31.648437c8.5625 3.773438 14.089843 12.242188 14.089843 21.59375zm0 0" fill="#c98c4f"/><path d="m308.296875 373.003906-71.796875-31.648437c-8.398438-3.695313-13.824219-12.027344-13.824219-21.207031v-77.367188h-122.96875v14.421875h97.210938v77.367187c0 9.179688 5.429687 17.511719 13.828125 21.210938l71.792968 31.644531c8.558594 3.777344 14.089844 12.246094 14.089844 21.59375v70.984375c0 2.65625-.730468 5.195313-2.019531 7.398438 6.6875-2.675782 13.1875-5.546875 19.46875-8.601563 5.066406-2.464843 8.304687-7.585937 8.304687-13.21875v-70.984375c0-9.351562-5.527343-17.820312-14.085937-21.59375zm0 0" fill="#af6a3a"/><path d="m222.675781 317.128906v-74.347656h-122.96875v48.855469c18.859375 22.675781 43.191407 39.757812 61.246094 39.757812h27.257813c10.195312 0 22.386718-5.445312 34.464843-14.265625zm0 0" fill="#af6a3a"/><g fill="#c98c4f"><path d="m272.492188 165.96875h-29.742188v61.480469h29.742188c13.023437 0 23.578124-10.554688 23.578124-23.578125v-14.324219c0-13.023437-10.554687-23.578125-23.578124-23.578125zm0 0"/><path d="m49.890625 165.96875h29.742187v61.480469h-29.742187c-13.023437 0-23.582031-10.554688-23.582031-23.578125v-14.324219c0-13.023437 10.558594-23.578125 23.582031-23.578125zm0 0"/><path d="m265.121094 204.625c0 44.421875-56.285156 105.042969-90.300782 105.042969h-27.257812c-34.015625 0-90.300781-60.621094-90.300781-105.042969 0 0-1.550781-62.617188.0625-83.410156 1.140625-14.6875 9.050781-22.9375 25.121093-26.152344 21.65625-4.320312 42.808594 19.40625 78.777344 19.40625s57.058594-23.726562 78.71875-19.40625c16.066406 3.214844 23.976563 11.464844 25.117188 26.152344 1.613281 20.792968.0625 83.410156.0625 83.410156zm0 0"/></g><path d="m265.058594 121.214844c-1.140625-14.6875-9.050782-22.9375-25.121094-26.152344-6.234375-1.242188-12.421875-.15625-18.925781 2.011719 11.21875 4.101562 16.925781 11.863281 17.878906 24.140625 1.613281 20.789062.058594 83.410156.058594 83.410156 0 44.421875-56.28125 105.042969-90.296875 105.042969h26.167968c34.015626 0 90.296876-60.621094 90.296876-105.042969.003906 0 1.554687-62.617188-.058594-83.410156zm0 0" fill="#af6a3a"/><path d="m115.863281 192.109375c-4.140625 0-7.5-3.355469-7.5-7.5v-3.261719c0-4.144531 3.359375-7.5 7.5-7.5s7.5 3.355469 7.5 7.5v3.261719c0 4.144531-3.359375 7.5-7.5 7.5zm0 0" fill="#233b5e"/><path d="m206.519531 192.109375c-4.140625 0-7.5-3.355469-7.5-7.5v-3.261719c0-4.144531 3.359375-7.5 7.5-7.5s7.5 3.355469 7.5 7.5v3.261719c0 4.144531-3.359375 7.5-7.5 7.5zm0 0" fill="#233b5e"/><path d="m224.164062 162.015625c-1.109374 0-2.234374-.246094-3.296874-.769531-9.488282-4.65625-18.710938-4.65625-28.203126 0-3.71875 1.824218-8.210937.289062-10.035156-3.429688-1.828125-3.71875-.292968-8.210937 3.425782-10.035156 13.742187-6.746094 27.679687-6.746094 41.421874 0 3.71875 1.824219 5.253907 6.316406 3.425782 10.035156-1.300782 2.65625-3.964844 4.199219-6.738282 4.199219zm0 0" fill="#272d44"/><path d="m133.019531 162.015625c-1.113281 0-2.238281-.246094-3.300781-.769531-9.488281-4.65625-18.714844-4.65625-28.203125 0-3.71875 1.824218-8.210937.289062-10.039063-3.429688-1.824218-3.714844-.289062-8.210937 3.429688-10.035156 13.742188-6.746094 27.679688-6.746094 41.421875 0 3.71875 1.824219 5.25 6.316406 3.425781 10.035156-1.300781 2.65625-3.964844 4.199219-6.734375 4.199219zm0 0" fill="#272d44"/><path d="m161.191406 238.570312c-9.683594 0-19.078125-2.964843-27.171875-8.578124-3.40625-2.359376-4.25-7.03125-1.890625-10.4375 2.359375-3.402344 7.03125-4.25 10.4375-1.890626 5.570313 3.863282 12.011719 5.90625 18.625 5.90625 6.613282 0 13.054688-2.042968 18.625-5.90625 3.40625-2.359374 8.078125-1.511718 10.4375 1.890626 2.359375 3.40625 1.515625 8.078124-1.890625 10.4375-8.09375 5.613281-17.492187 8.578124-27.171875 8.578124zm0 0" fill="#874d26"/><path d="m161.191406 512c45.566406 0 88.386719-7.839844 125.628906-21.601562v-30.0625s-21.628906-2.582032-21.628906-32.03125c0-17.316407 2.835938-48.917969 5.167969-72.023438l-27.621094-12.175781c-.25 44.828125-36.660156 81.097656-81.546875 81.097656-44.886718 0-81.296875-36.269531-81.546875-81.097656l-27.621093 12.175781c2.332031 23.105469 5.164062 54.707031 5.164062 72.023438 0 29.449218-21.625 32.03125-21.625 32.03125v30.0625c37.242188 13.761718 80.0625 21.601562 125.628906 21.601562zm0 0" fill="#61ce8d"/><path d="m238.972656 368.21875 29.042969 12.804688c.753906-8.625 1.578125-17.144532 2.34375-24.742188l-27.621094-12.175781c-.046875 8.398437-1.363281 16.5-3.765625 24.113281zm0 0" fill="#40914c"/><path d="m294.546875 487.429688v-45.695313c0-4.265625-3.457031-7.722656-7.726563-7.722656-4.265624 0-7.726562 3.457031-7.726562 7.722656v51.410156c5.257812-1.792969 10.410156-3.699219 15.453125-5.714843zm0 0" fill="#af6a3a"/><path d="m43.289062 493.144531v-51.410156c0-4.265625-3.457031-7.722656-7.726562-7.722656-4.265625 0-7.722656 3.457031-7.722656 7.722656v45.695313c5.039062 2.015624 10.191406 3.921874 15.449218 5.714843zm0 0" fill="#af6a3a"/><path d="m242.75 503.273438v-46.386719c0-2.277344-1.84375-4.121094-4.121094-4.121094h-154.875c-2.277344 0-4.121094 1.84375-4.121094 4.121094v46.386719c25.652344 5.660156 53.066407 8.726562 81.558594 8.726562 28.488282 0 55.90625-3.066406 81.558594-8.726562zm0 0" fill="#e6eff5"/><path d="m238.628906 452.765625h-154.875c-2.277344 0-4.121094 1.84375-4.121094 4.121094v20.089843h163.117188v-20.089843c0-2.277344-1.84375-4.121094-4.121094-4.121094zm0 0" fill="#f4d34d"/></svg>